<svg width="40" height="40" viewBox="0 0 40 40" fill="none" xmlns="http://www.w3.org/2000/svg">
<path d="M20.052 22.1029C19.9043 22.0881 19.727 22.0881 19.5645 22.1029C16.0488 21.9847 13.2568 19.1042 13.2568 15.5588C13.2568 11.9397 16.1817 9 19.8157 9C23.4348 9 26.3745 11.9397 26.3745 15.5588C26.3597 19.1042 23.5678 21.9847 20.052 22.1029Z" fill="white"/>
<path d="M11.8783 25.1765C8.04058 27.7456 8.04058 31.9322 11.8783 34.4853C16.2393 37.4033 23.3914 37.4033 27.7524 34.4853C31.5901 31.9163 31.5901 27.7297 27.7524 25.1765C23.4072 22.2745 16.2552 22.2745 11.8783 25.1765Z" fill="white"/>
</svg>
