<svg width="41" height="41" viewBox="0 0 41 41" fill="none" xmlns="http://www.w3.org/2000/svg">
<circle cx="20.8452" cy="20.7129" r="20" fill="url(#paint0_linear_165_124)"/>
<path d="M21.0818 21.9452C20.9341 21.9304 20.7568 21.9304 20.5943 21.9452C17.0786 21.827 14.2866 18.9464 14.2866 15.4011C14.2866 11.7819 17.2115 8.84229 20.8455 8.84229C24.4646 8.84229 27.4043 11.7819 27.4043 15.4011C27.3895 18.9464 24.5976 21.827 21.0818 21.9452Z" fill="white"/>
<path d="M12.9081 25.7427C9.07036 28.3117 9.07036 32.4983 12.9081 35.0515C17.2691 37.9694 24.4212 37.9694 28.7822 35.0515C32.6199 32.4825 32.6199 28.2959 28.7822 25.7427C24.437 22.8406 17.2849 22.8406 12.9081 25.7427Z" fill="white"/>
<defs>
<linearGradient id="paint0_linear_165_124" x1="0.845215" y1="0.712891" x2="41.8404" y2="1.76022" gradientUnits="userSpaceOnUse">
<stop stop-color="#B6B9FF"/>
<stop offset="1" stop-color="#B1E1FF"/>
</linearGradient>
</defs>
</svg>
